# xmcd
#
# Track frame offsets:
#	150
#	16262
#	31482
#	54162
#	75030
#
# Disc length: 1230 seconds
#
# Revision: 1
# Processed by: cddbd v1.5.2PL0 Copyright (c) Steve Scherf et al.
# Submitted via: audiograbber 1.83.01
#
DISCID=2504cc05
DTITLE=Dagaz - Captured By Love [CDM)
DYEAR=1997
DGENRE=Dance
TTITLE0=Take Me Away! (Dance Version)
TTITLE1=Captured By Love (Dance Version)
TTITLE2=Take Me Away! (Extended)
TTITLE3=Take Me Away! (Jim V.'s Club Edit)
TTITLE4=Captured By Love (Jim V.'s Funkaphobic Mix)
EXTD=TR.
EXTT0=
EXTT1=
EXTT2=
EXTT3=
EXTT4=
PLAYORDER=
